<svg xmlns="http://www.w3.org/2000/svg" data-name="Artificial Intelligence" viewBox="0 0 64 64" id="ai-mind"><path fill="#ffc14f" d="M30,5V59c0,2.21-1.79,4-4,4-.94,0-1.81-.33-2.5-.88-.69,.55-1.56,.88-2.5,.88-1.02,0-1.95-.38-2.66-1.02-.11,.02-.23,.02-.34,.02-1.49,0-2.79-.82-3.48-2.03-1.98-.24-3.52-1.92-3.52-3.97,0-.04,0-.09,.01-.13-1.44-.36-2.57-1.51-2.91-2.97-1.78-.41-3.1-2-3.1-3.9,0-.5,.09-.97,.26-1.41-1.34-.64-2.26-2.01-2.26-3.59,0-.41,.06-.8,.17-1.17-.72-.73-1.17-1.73-1.17-2.83,0-.69,.18-1.34,.48-1.9-.05-.04-.09-.08-.14-.12-.52-.45-.91-1.04-1.13-1.7-.14-.4-.21-.83-.21-1.28,0-.94,.33-1.81,.88-2.5-.55-.69-.88-1.56-.88-2.5,0-1.1,.45-2.1,1.17-2.83-.11-.37-.17-.76-.17-1.17,0-1.1,.45-2.1,1.17-2.83-.01-.03-.02-.07-.03-.1-.09-.34-.14-.7-.14-1.07s.05-.72,.15-1.06c.28-1.03,.97-1.9,1.88-2.42,.16-1.38,1.03-2.54,2.23-3.11-.17-.44-.26-.91-.26-1.41,0-1.5,.82-2.8,2.04-3.48,.58-.33,1.25-.52,1.96-.52h0c.01-2.22,1.79-4,4-4,.37,0,.74,.05,1.08,.15,.4-2.36,2.45-4.15,4.92-4.15,.7,0,1.36,.14,1.97,.4,.72-.86,1.81-1.4,3.03-1.4,2.21,0,4,1.79,4,4Z"></path><path fill="#ffb52d" d="M29.48,60.96c-.68,1.22-1.98,2.04-3.48,2.04-.94,0-1.81-.33-2.5-.88-.69,.55-1.56,.88-2.5,.88-1.02,0-1.95-.38-2.66-1.02-.11,.02-.23,.02-.34,.02-1.49,0-2.79-.82-3.48-2.03-1.98-.24-3.52-1.92-3.52-3.97,0-.04,0-.09,.01-.13-1.44-.36-2.57-1.51-2.91-2.97-1.78-.41-3.1-2-3.1-3.9,0-.5,.09-.97,.26-1.41-1.34-.64-2.26-2.01-2.26-3.59,0-.41,.06-.8,.17-1.17-.72-.73-1.17-1.73-1.17-2.83,0-.69,.18-1.34,.48-1.9-.91-.73-1.48-1.85-1.48-3.1,0-.94,.33-1.81,.88-2.5-.55-.69-.88-1.56-.88-2.5,0-1.1,.45-2.1,1.17-2.83-.11-.37-.17-.76-.17-1.17,0-1.1,.45-2.1,1.17-2.83-.11-.37-.17-.76-.17-1.17,0-1.49,.82-2.79,2.03-3.48,.16-1.38,1.03-2.54,2.23-3.11-.17-.44-.26-.91-.26-1.41,0-2.21,1.79-4,4-4,0-2.21,1.79-4,4-4,.17,0,.35,.01,.52,.04-.33,.58-.52,1.25-.52,1.96-2.21,0-4,1.79-4,4,0,.5,.09,.97,.26,1.41-1.2,.57-2.07,1.73-2.23,3.11-1.21,.69-2.03,1.99-2.03,3.48,0,.41,.06,.8,.17,1.17-.72,.73-1.17,1.73-1.17,2.83,0,.41,.06,.8,.17,1.17-.72,.73-1.17,1.73-1.17,2.83,0,.94,.33,1.81,.88,2.5-.55,.69-.88,1.56-.88,2.5,0,1.25,.57,2.37,1.48,3.1-.3,.56-.48,1.21-.48,1.9,0,1.1,.45,2.1,1.17,2.83-.11,.37-.17,.76-.17,1.17,0,1.58,.92,2.95,2.26,3.59-.17,.44-.26,.91-.26,1.41,0,1.9,1.32,3.49,3.1,3.9,.34,1.46,1.47,2.61,2.91,2.97-.01,.04-.01,.09-.01,.13,0,2.05,1.54,3.73,3.52,3.97,.69,1.21,1.99,2.03,3.48,2.03,.11,0,.23,0,.34-.02,.71,.64,1.64,1.02,2.66,1.02,.94,0,1.81-.33,2.5-.88,.56,.45,1.24,.75,1.98,.84Z"></path><circle cx="39" cy="3" r="2" fill="#07a9f0"></circle><circle cx="51" cy="9" r="2" fill="#07a9f0"></circle><circle cx="51" cy="17" r="2" fill="#07a9f0"></circle><circle cx="52" cy="27" r="2" fill="#07a9f0"></circle><circle cx="61" cy="25" r="2" fill="#07a9f0"></circle><circle cx="36" cy="19" r="2" fill="#07a9f0"></circle><circle cx="42" cy="27" r="2" fill="#07a9f0"></circle><circle cx="53" cy="35" r="2" fill="#07a9f0"></circle><circle cx="49" cy="49" r="2" fill="#07a9f0"></circle><circle cx="57" cy="53" r="2" fill="#07a9f0"></circle><circle cx="61" cy="39" r="2" fill="#07a9f0"></circle><circle cx="36" cy="37" r="2" fill="#07a9f0"></circle><circle cx="36" cy="49" r="2" fill="#07a9f0"></circle><circle cx="36" cy="61" r="2" fill="#07a9f0"></circle><path fill="#0691ce" d="M37.82 61.82c-.31.69-1.01 1.18-1.82 1.18-1.1 0-2-.9-2-2 0-.81.49-1.51 1.18-1.82-.12.25-.18.53-.18.82 0 1.1.9 2 2 2 .29 0 .57-.06.82-.18zM37.82 49.82c-.31.69-1.01 1.18-1.82 1.18-1.1 0-2-.9-2-2 0-.81.49-1.51 1.18-1.82-.12.25-.18.53-.18.82 0 1.1.9 2 2 2 .29 0 .57-.06.82-.18zM50.82 49.82c-.31.69-1.01 1.18-1.82 1.18-1.1 0-2-.9-2-2 0-.81.49-1.51 1.18-1.82-.12.25-.18.53-.18.82 0 1.1.9 2 2 2 .29 0 .57-.06.82-.18zM58.82 53.82c-.31.69-1.01 1.18-1.82 1.18-1.1 0-2-.9-2-2 0-.81.49-1.51 1.18-1.82-.12.25-.18.53-.18.82 0 1.1.9 2 2 2 .29 0 .57-.06.82-.18zM62.82 39.82c-.31.69-1.01 1.18-1.82 1.18-1.1 0-2-.9-2-2 0-.81.49-1.51 1.18-1.82-.12.25-.18.53-.18.82 0 1.1.9 2 2 2 .29 0 .57-.06.82-.18zM54.82 35.82c-.31.69-1.01 1.18-1.82 1.18-1.1 0-2-.9-2-2 0-.81.49-1.51 1.18-1.82-.12.25-.18.53-.18.82 0 1.1.9 2 2 2 .29 0 .57-.06.82-.18zM37.82 37.82c-.31.69-1.01 1.18-1.82 1.18-1.1 0-2-.9-2-2 0-.81.49-1.51 1.18-1.82-.12.25-.18.53-.18.82 0 1.1.9 2 2 2 .29 0 .57-.06.82-.18zM43.82 27.82c-.31.69-1.01 1.18-1.82 1.18-1.1 0-2-.9-2-2 0-.81.49-1.51 1.18-1.82-.12.25-.18.53-.18.82 0 1.1.9 2 2 2 .29 0 .57-.06.82-.18zM53.82 27.82c-.31.69-1.01 1.18-1.82 1.18-1.1 0-2-.9-2-2 0-.81.49-1.51 1.18-1.82-.12.25-.18.53-.18.82 0 1.1.9 2 2 2 .29 0 .57-.06.82-.18zM62.82 25.82c-.31.69-1.01 1.18-1.82 1.18-1.1 0-2-.9-2-2 0-.81.49-1.51 1.18-1.82-.12.25-.18.53-.18.82 0 1.1.9 2 2 2 .29 0 .57-.06.82-.18zM52.82 17.82c-.31.69-1.01 1.18-1.82 1.18-1.1 0-2-.9-2-2 0-.81.49-1.51 1.18-1.82-.12.25-.18.53-.18.82 0 1.1.9 2 2 2 .29 0 .57-.06.82-.18zM37.82 19.82c-.31.69-1.01 1.18-1.82 1.18-1.1 0-2-.9-2-2 0-.81.49-1.51 1.18-1.82-.12.25-.18.53-.18.82 0 1.1.9 2 2 2 .29 0 .57-.06.82-.18zM52.82 9.82c-.31.69-1.01 1.18-1.82 1.18-1.1 0-2-.9-2-2 0-.81.49-1.51 1.18-1.82-.12.25-.18.53-.18.82 0 1.1.9 2 2 2 .29 0 .57-.06.82-.18zM40.82 3.82c-.31.69-1.01 1.18-1.82 1.18-1.1 0-2-.9-2-2 0-.81.49-1.51 1.18-1.82-.12.25-.18.53-.18.82 0 1.1.9 2 2 2 .29 0 .57-.06.82-.18z"></path><g><path fill="#000935" d="M26,0c-1.23,0-2.4,.45-3.3,1.24-.55-.16-1.12-.24-1.7-.24-2.59,0-4.83,1.64-5.66,4.01-.11-.01-.22-.01-.34-.01-2.44,0-4.48,1.76-4.92,4.08-2.32,.44-4.08,2.48-4.08,4.92,0,.32,.03,.63,.09,.94-1.01,.71-1.71,1.76-1.97,2.98-1.32,.93-2.12,2.45-2.12,4.08,0,.3,.03,.6,.08,.9-.7,.88-1.08,1.97-1.08,3.1,0,.3,.03,.6,.08,.9-.7,.88-1.08,1.97-1.08,3.1,0,.88,.24,1.74,.67,2.5-.43,.76-.67,1.62-.67,2.5,0,1.25,.46,2.44,1.28,3.34-.18,.54-.28,1.1-.28,1.66,0,1.13,.38,2.22,1.08,3.1-.05,.3-.08,.6-.08,.9,0,1.62,.8,3.13,2.09,4.06-.06,.3-.09,.62-.09,.94,0,2.14,1.33,4,3.3,4.71,.47,1.31,1.46,2.35,2.74,2.89,.25,2.09,1.8,3.82,3.88,4.28,.93,1.32,2.45,2.12,4.08,2.12h.01c1.55,1.17,3.79,1.31,5.49,.33,.76,.43,1.62,.67,2.5,.67,2.76,0,5-2.24,5-5V5c0-2.76-2.24-5-5-5Zm3,9h-7c-2.21,0-4,1.79-4,4,0,.55,.45,1,1,1s1-.45,1-1c0-1.1,.9-2,2-2h7V31H11c-1.65,0-3-1.35-3-3,0-.55-.45-1-1-1s-1,.45-1,1c0,2.76,2.24,5,5,5H29v2h-7c-2.21,0-4,1.79-4,4,0,.55,.45,1,1,1s1-.45,1-1c0-1.1,.9-2,2-2h7v22c0,1.65-1.35,3-3,3-.68,0-1.33-.23-1.88-.66-.18-.15-.4-.22-.62-.22s-.44,.07-.62,.22c-1.13,.9-2.82,.84-3.87-.1-.22-.2-.55-.29-.85-.24h-.08c-1.1,.02-2.14-.56-2.69-1.53-.16-.27-.44-.45-.75-.49-1.5-.18-2.63-1.45-2.64-2.97,.07-.5-.25-.98-.75-1.11-1.07-.27-1.92-1.14-2.18-2.23-.08-.37-.37-.66-.75-.74-1.36-.32-2.32-1.52-2.32-2.93,0-.37,.06-.71,.19-1.05,.19-.49-.03-1.04-.5-1.26-1.03-.49-1.69-1.55-1.69-2.69,0-.3,.04-.6,.13-.88,.1-.35,.01-.73-.25-.99-.57-.58-.88-1.33-.88-2.13,0-.49,.12-.99,.36-1.43,0,0,0-.01,.01-.01,0-.01,.01-.01,.01-.02,.11-.23,1.15-2.2,3.21-1.27,.5,.23,1.09,0,1.32-.5,.23-.5,.01-1.1-.5-1.32-2.26-1.03-3.98-.09-5,1.03-.26-.45-.41-.95-.41-1.48,0-.68,.23-1.33,.66-1.88,.29-.36,.29-.88,0-1.24-.43-.55-.66-1.2-.66-1.88,0-.8,.31-1.55,.88-2.13,.26-.26,.35-.64,.25-.99-.09-.28-.13-.58-.13-.88,0-.78,.3-1.51,.85-2.08,.4-.28,2.44-1.52,4.6-.09,.46,.31,1.08,.18,1.38-.28,.31-.45,.18-1.08-.28-1.38-2.13-1.43-4.17-1.1-5.49-.59,.13-.91,.65-1.73,1.47-2.19,.27-.16,.46-.44,.49-.75,.12-1,.76-1.89,1.67-2.33,.47-.22,.69-.77,.5-1.26-.13-.34-.19-.68-.19-1.05,0-1.36,.91-2.5,2.16-2.86,.34,1.35,1.31,3.07,3.52,3.81,.11,.03,.22,.05,.32,.05,.42,0,.81-.26,.95-.68,.17-.53-.11-1.09-.63-1.27-2.24-.74-2.32-2.93-2.32-3.05,0-1.66,1.35-3,3-3,.28,0,.55,.04,.8,.11,.27,.08,.57,.04,.81-.11s.41-.4,.46-.68c.32-1.92,1.98-3.32,3.93-3.32,.55,0,1.08,.11,1.58,.32,.4,.17,.87,.06,1.16-.28,.55-.66,1.38-1.04,2.26-1.04,1.65,0,3,1.35,3,3v4Z"></path><path fill="#000935" d="M13,28c2.76,0,5-2.24,5-5,0-.55-.45-1-1-1s-1,.45-1,1c0,1.65-1.35,3-3,3-.55,0-1,.45-1,1s.45,1,1,1Z"></path><path fill="#000935" d="M14.03 20.32c.76-.84 1.84-1.32 2.97-1.32 2.21 0 4 1.79 4 4 0 .55.45 1 1 1s1-.45 1-1c0-3.31-2.69-6-6-6-1.7 0-3.32.72-4.46 1.98-.37.41-.34 1.04.07 1.41.41.37 1.04.34 1.41-.07zM23 28c0 .55.45 1 1 1s1-.45 1-1 .45-1 1-1 1-.45 1-1-.45-1-1-1c-1.65 0-3 1.35-3 3zM23 18c.55 0 1-.45 1-1s.45-1 1-1 1-.45 1-1-.45-1-1-1c-1.65 0-3 1.35-3 3 0 .55.45 1 1 1zM21 50c-.55 0-1 .45-1 1 0 1.65-1.35 3-3 3-.55 0-1 .45-1 1s.45 1 1 1c2.76 0 5-2.24 5-5 0-.55-.45-1-1-1zM13 36c-.55 0-1 .45-1 1 0 1.65-1.35 3-3 3-.55 0-1 .45-1 1s.45 1 1 1c2.76 0 5-2.24 5-5 0-.55-.45-1-1-1zM16.96 48.93c-.06-1.13.37-2.24 1.17-3.04 1.51-1.51 4.14-1.51 5.66 0 .39.39 1.02.39 1.41 0 .39-.39.39-1.02 0-1.41-1.13-1.13-2.64-1.76-4.24-1.76s-3.11.62-4.24 1.76c-1.2 1.2-1.84 2.86-1.75 4.55.03.53.47.95 1 .95.02 0 .04 0 .05 0 .55-.03.98-.5.95-1.05zM25 54c-1.65 0-3 1.35-3 3 0 .55.45 1 1 1s1-.45 1-1 .45-1 1-1 1-.45 1-1-.45-1-1-1zM10.29 44.88c-.39.39-.39 1.02 0 1.41.19.19.29.44.29.71s-.1.52-.29.71c-.39.39-.39 1.02 0 1.41.2.2.45.29.71.29s.51-.1.71-.29c.57-.57.88-1.32.88-2.12s-.31-1.55-.88-2.12c-.39-.39-1.02-.39-1.41 0zM51 14c-1.65 0-3 1.35-3 3s1.35 3 3 3c1.3 0 2.4-.84 2.82-2h2.57l2.46 4.92c-.52.54-.85 1.27-.85 2.08 0 1.65 1.35 3 3 3s3-1.35 3-3-1.35-3-3-3c-.12 0-.24.02-.36.04l-2.75-5.48c-.17-.34-.52-.55-.89-.55h-3.18c-.41-1.16-1.51-2-2.82-2zm11 11c0 .55-.45 1-1 1s-1-.45-1-1 .45-1 1-1 1 .45 1 1zm-11-7c-.55 0-1-.45-1-1s.45-1 1-1 1 .45 1 1-.45 1-1 1zM36 22c1.3 0 2.4-.84 2.82-2h4.77l5.71 5.71c-.19.39-.3.82-.3 1.29 0 1.65 1.35 3 3 3s3-1.35 3-3-1.35-3-3-3c-.46 0-.89.11-1.29.3l-6.01-6.01c-.19-.19-.44-.29-.71-.29h-5.18c-.41-1.16-1.51-2-2.82-2-1.65 0-3 1.35-3 3s1.35 3 3 3zm17 5c0 .55-.45 1-1 1s-1-.45-1-1c0-.27.11-.52.29-.7 0 0 0 0 .01 0s0 0 0-.01c.18-.18.42-.29.7-.29.55 0 1 .45 1 1zm-17-9c.55 0 1 .45 1 1s-.45 1-1 1-1-.45-1-1 .45-1 1-1zM49 46c-1.3 0-2.4.84-2.82 2h-4.18c-.55 0-1 .45-1 1v5h-6c-.55 0-1 .45-1 1s.45 1 1 1h7c.55 0 1-.45 1-1v-5h3.18c.41 1.16 1.51 2 2.82 2 1.65 0 3-1.35 3-3s-1.35-3-3-3zm0 4c-.55 0-1-.45-1-1s.45-1 1-1 1 .45 1 1-.45 1-1 1zM58 50.18v-3.18c0-.27-.11-.52-.29-.71l-4-4c-.39-.39-1.02-.39-1.41 0s-.39 1.02 0 1.41l3.71 3.71v2.77c-1.16.41-2 1.51-2 2.82 0 1.65 1.35 3 3 3s3-1.35 3-3c0-1.3-.84-2.4-2-2.82zm-1 3.82c-.55 0-1-.45-1-1s.45-1 1-1 1 .45 1 1-.45 1-1 1zM62 36.18v-5.18c0-.55-.45-1-1-1s-1 .45-1 1v5.18c-1.16.41-2 1.51-2 2.82 0 1.65 1.35 3 3 3s3-1.35 3-3c0-1.3-.84-2.4-2-2.82zm-1 3.82c-.55 0-1-.45-1-1s.45-1 1-1 1 .45 1 1-.45 1-1 1zM36 40c1.3 0 2.4-.84 2.82-2h3.18c.27 0 .52-.11.71-.29l5-5c.39-.39.39-1.02 0-1.41s-1.02-.39-1.41 0l-4.71 4.71h-2.77c-.41-1.16-1.51-2-2.82-2-1.65 0-3 1.35-3 3s1.35 3 3 3zm0-4c.55 0 1 .45 1 1s-.45 1-1 1-1-.45-1-1 .45-1 1-1z"></path><path fill="#000935" d="M36 52c1.65 0 3-1.35 3-3 0-1.3-.84-2.4-2-2.82v-2.18h8c.27 0 .52-.11.71-.29l6.01-6.01c.39.19.82.3 1.29.3 1.65 0 3-1.35 3-3s-1.35-3-3-3-3 1.35-3 3c0 .46.11.89.3 1.29l-5.71 5.71h-8.59c-.55 0-1 .45-1 1v3.18c-1.16.41-2 1.51-2 2.82 0 1.65 1.35 3 3 3zm17-18c.55 0 1 .45 1 1s-.45 1-1 1c-.27 0-.52-.11-.7-.29 0 0 0 0 0-.01s0 0-.01 0c-.18-.18-.29-.42-.29-.7 0-.55.45-1 1-1zm-17 14c.55 0 1 .45 1 1s-.45 1-1 1-1-.45-1-1 .45-1 1-1zM34 10h5c.55 0 1-.45 1-1v-3.18c1.16-.41 2-1.51 2-2.82 0-1.65-1.35-3-3-3s-3 1.35-3 3c0 1.3.84 2.4 2 2.82v2.18h-4c-.55 0-1 .45-1 1s.45 1 1 1zm5-8c.55 0 1 .45 1 1s-.45 1-1 1-1-.45-1-1 .45-1 1-1z"></path><path fill="#000935" d="M34 14h8c.31 0 .61-.15.8-.4l2.7-3.6h2.68c.41 1.16 1.51 2 2.82 2 1.65 0 3-1.35 3-3s-1.35-3-3-3c-1.3 0-2.4.84-2.82 2h-3.18c-.31 0-.61.15-.8.4l-2.7 3.6h-7.5c-.55 0-1 .45-1 1s.45 1 1 1zm17-6c.55 0 1 .45 1 1s-.45 1-1 1-1-.45-1-1 .45-1 1-1zM34 28h5.18c.41 1.16 1.51 2 2.82 2 1.65 0 3-1.35 3-3s-1.35-3-3-3c-1.3 0-2.4.84-2.82 2h-5.18c-.55 0-1 .45-1 1s.45 1 1 1zm8-2c.55 0 1 .45 1 1s-.45 1-1 1-1-.45-1-1 .45-1 1-1zM48.22 55.38l-3.7 4.62h-5.7c-.41-1.16-1.51-2-2.82-2-1.65 0-3 1.35-3 3s1.35 3 3 3c1.3 0 2.4-.84 2.82-2h6.18c.3 0 .59-.14.78-.38l4-5c.34-.43.27-1.06-.16-1.41-.43-.35-1.06-.27-1.41.16zm-12.22 6.62c-.55 0-1-.45-1-1s.45-1 1-1 1 .45 1 1-.45 1-1 1z"></path></g></svg>