<svg xmlns="http://www.w3.org/2000/svg"  viewBox="0 0 64 64" width="64px" height="64px"><rect width="54" height="46" x="5" y="9" fill="#85cbf8" rx="2" ry="2"/><path fill="#7bbeeb" d="M33 31H59V55H33z"/><path fill="#faefde" d="M33,31V55H7a2,2,0,0,1-2-2V31Z"/><path fill="#ced8ed" d="M5 9H59V19H5z"/><path fill="#8d6c9f" d="M55,30H51a1,1,0,0,0,0,2h4a1,1,0,0,0,0-2Z"/><path fill="#8d6c9f" d="M57,8H7a3,3,0,0,0-3,3V53a3,3,0,0,0,3,3H57a3,3,0,0,0,3-3V11A3,3,0,0,0,57,8ZM7,10H57a1,1,0,0,1,1,1v7H6V11A1,1,0,0,1,7,10ZM57,54H34V32H47a1,1,0,0,0,0-2H9a1,1,0,0,0,0,2H32V54H7a1,1,0,0,1-1-1V20H58V53A1,1,0,0,1,57,54Z"/><path fill="#8d6c9f" d="M20 16a1 1 0 0 0 1-1V13a1 1 0 0 0-2 0v2A1 1 0 0 0 20 16zM15 16a1 1 0 0 0 1-1V13a1 1 0 0 0-2 0v2A1 1 0 0 0 15 16zM10 16a1 1 0 0 0 1-1V13a1 1 0 0 0-2 0v2A1 1 0 0 0 10 16zM35 16a1 1 0 0 0 1-1V13a1 1 0 0 0-2 0v2A1 1 0 0 0 35 16zM40 16a1 1 0 0 0 1-1V13a1 1 0 0 0-2 0v2A1 1 0 0 0 40 16zM45 16a1 1 0 0 0 1-1V13a1 1 0 0 0-2 0v2A1 1 0 0 0 45 16zM50 16a1 1 0 0 0 1-1V13a1 1 0 0 0-2 0v2A1 1 0 0 0 50 16zM55 16a1 1 0 0 0 1-1V13a1 1 0 0 0-2 0v2A1 1 0 0 0 55 16zM25 16a1 1 0 0 0 1-1V13a1 1 0 0 0-2 0v2A1 1 0 0 0 25 16zM30 16a1 1 0 0 0 1-1V13a1 1 0 0 0-2 0v2A1 1 0 0 0 30 16zM23 40a1 1 0 0 0 0 2h2a1 1 0 0 0 0-2zM11 42h8a1 1 0 0 0 0-2H11a1 1 0 0 0 0 2zM11 50h6a1 1 0 0 0 0-2H11a1 1 0 0 0 0 2zM11 38H27a1 1 0 0 0 0-2H11a1 1 0 0 0 0 2zM11 46H27a1 1 0 0 0 0-2H11a1 1 0 0 0 0 2z"/></svg>