<svg xmlns="http://www.w3.org/2000/svg" fill-rule="evenodd" stroke-linejoin="round" stroke-miterlimit="2" clip-rule="evenodd" viewBox="0 0 96 96" id="mobile-settings"><path fill="none" d="M0 0h96v96H0z"></path><path d="M58.503 35.475V5a4.5 4.5 0 0 0-4.5-4.5h-41.84a4.5 4.5 0 0 0-4.5 4.5v86a4.5 4.5 0 0 0 4.5 4.5h41.84a4.5 4.5 0 0 0 4.5-4.5V65.469a1.5 1.5 0 0 0-3 0V91a1.5 1.5 0 0 1-1.5 1.5h-41.84a1.5 1.5 0 0 1-1.5-1.5V5a1.5 1.5 0 0 1 1.5-1.5h41.84a1.499 1.499 0 0 1 1.5 1.5v30.475a1.5 1.5 0 0 0 3 0Z"></path><path d="M16.411 87.079h4.888a1.5 1.5 0 0 0 0-3h-4.888a1.5 1.5 0 0 0 0 3zm0-25.514H29.64a1.5 1.5 0 0 0 0-3H16.411a1.501 1.501 0 0 0 0 3zm0 6.111H29.64a1.5 1.5 0 0 0 0-3H16.411a1.5 1.5 0 0 0 0 3zm0 6.11H29.64a1.5 1.5 0 0 0 0-3H16.411a1.5 1.5 0 0 0 0 3zm28.456 13.293h4.888a1.5 1.5 0 0 0 0-3h-4.888a1.501 1.501 0 0 0 0 3zm-14.228 0h4.888a1.5 1.5 0 0 0 0-3h-4.888a1.5 1.5 0 0 0 0 3zm1.15-75.329h2.588a1.5 1.5 0 0 0 0-3h-2.588a1.5 1.5 0 0 0 0 3zm31.113 41.865a.186.186 0 0 1-.048-.181 13.06 13.06 0 0 0-3.54-11.984 13.046 13.046 0 0 0-9.21-3.831 3.07 3.07 0 0 0-2.194 5.24c1.275 1.282 2.637 2.644 2.637 2.644a1.833 1.833 0 0 1 0 2.593l-3.1 3.1a1.832 1.832 0 0 1-2.592 0l-2.641-2.641a3.074 3.074 0 0 0-5.249 2.211 13.069 13.069 0 0 0 3.837 9.197 13.08 13.08 0 0 0 11.995 3.544.178.178 0 0 1 .164.048l.003.002c2.238 2.23 9.545 9.536 14.148 14.139a7.026 7.026 0 0 0 9.936 0 7.025 7.025 0 0 0 0-9.935L62.902 53.615zm-2.122 2.121 14.146 14.146a4.026 4.026 0 0 1 0 5.693 4.024 4.024 0 0 1-5.692 0 19537.337 19537.337 0 0 0-14.153-14.144 3.178 3.178 0 0 0-2.919-.856 10.09 10.09 0 0 1-9.239-2.733 10.086 10.086 0 0 1-2.958-7.102v-.01c0-.03.018-.058.046-.07a.076.076 0 0 1 .081.016l2.641 2.641a4.833 4.833 0 0 0 6.835 0l3.101-3.1a4.834 4.834 0 0 0 0-6.835s-1.36-1.36-2.635-2.641l-.003-.003a.07.07 0 0 1-.015-.077.069.069 0 0 1 .065-.042h.013c2.571.009 5.139.993 7.099 2.953a10.068 10.068 0 0 1 2.728 9.236 3.177 3.177 0 0 0 .859 2.928zM31.14 20.325a3.497 3.497 0 0 0-3.5-3.5h-9.779a3.5 3.5 0 0 0-3.5 3.5v9.814a3.497 3.497 0 0 0 3.5 3.5h9.779a3.5 3.5 0 0 0 3.5-3.5v-9.814zm-3 0v9.814a.5.5 0 0 1-.5.5h-9.779a.5.5 0 0 1-.5-.5v-9.814a.5.5 0 0 1 .5-.5h9.779a.5.5 0 0 1 .5.5zm3 19.786a3.496 3.496 0 0 0-3.5-3.5h-9.779a3.496 3.496 0 0 0-3.5 3.5v9.814a3.5 3.5 0 0 0 3.5 3.5h9.779a3.5 3.5 0 0 0 3.5-3.5v-9.814zm-3 0v9.814a.5.5 0 0 1-.5.5h-9.779a.5.5 0 0 1-.5-.5v-9.814a.5.5 0 0 1 .5-.5h9.779a.5.5 0 0 1 .5.5zm23.666-19.786a3.498 3.498 0 0 0-3.5-3.5h-9.78a3.502 3.502 0 0 0-3.5 3.5v9.814a3.502 3.502 0 0 0 3.5 3.5h9.78a3.5 3.5 0 0 0 3.5-3.5v-9.814zm-3 0v9.814a.5.5 0 0 1-.5.5h-9.78a.504.504 0 0 1-.354-.146.504.504 0 0 1-.146-.354v-9.814a.5.5 0 0 1 .5-.5h9.78a.499.499 0 0 1 .5.5zm30.06-5.44v-.354a3.028 3.028 0 0 0-3.028-3.028h-2.46a3.028 3.028 0 0 0-3.028 3.028v.354a.028.028 0 0 1-.047.02l-.251-.25a3.027 3.027 0 0 0-4.282 0l-1.739 1.739a3.027 3.027 0 0 0 0 4.282l.25.251c.008.008.01.02.006.03a.027.027 0 0 1-.025.017h-.355a3.028 3.028 0 0 0-3.027 3.028v2.46a3.028 3.028 0 0 0 3.027 3.028h.354a.028.028 0 0 1 .02.047l-.25.251a3.027 3.027 0 0 0 0 4.282l1.739 1.739a3.027 3.027 0 0 0 4.282 0l.251-.25a.028.028 0 0 1 .03-.006c.01.004.017.014.017.025v.355a3.028 3.028 0 0 0 3.028 3.027h2.46a3.028 3.028 0 0 0 3.028-3.027v-.355c0-.011.007-.021.017-.025a.028.028 0 0 1 .03.006l.251.25a3.027 3.027 0 0 0 4.282 0l1.739-1.739a3.027 3.027 0 0 0 0-4.282l-.25-.251a.028.028 0 0 1 .02-.047h.354a3.028 3.028 0 0 0 3.028-3.028v-2.46a3.028 3.028 0 0 0-3.028-3.028h-.354a.028.028 0 0 1-.02-.047l.25-.251a3.027 3.027 0 0 0 0-4.282l-1.739-1.739a3.027 3.027 0 0 0-4.282 0l-.251.25a.028.028 0 0 1-.047-.02zm-3-.354v.354a3.03 3.03 0 0 0 5.169 2.141l.25-.25a.027.027 0 0 1 .039 0l1.74 1.74a.027.027 0 0 1 0 .039l-.25.25a3.03 3.03 0 0 0 2.141 5.169h.354c.015 0 .028.012.028.028v2.46a.029.029 0 0 1-.028.028h-.354a3.03 3.03 0 0 0-2.141 5.169l.25.25a.027.027 0 0 1 0 .039l-1.74 1.74a.027.027 0 0 1-.039 0l-.25-.251a3.029 3.029 0 0 0-5.169 2.141v.355a.027.027 0 0 1-.028.027h-2.46a.028.028 0 0 1-.028-.027v-.355a3.029 3.029 0 0 0-5.169-2.141l-.25.251a.027.027 0 0 1-.039 0l-1.74-1.74a.027.027 0 0 1 0-.039l.25-.25a3.029 3.029 0 0 0-2.14-5.169h-.355a.028.028 0 0 1-.027-.028v-2.46c0-.016.012-.028.027-.028h.355a3.029 3.029 0 0 0 2.14-5.169l-.25-.25a.027.027 0 0 1 0-.039l1.74-1.74a.027.027 0 0 1 .039 0l.25.25a3.03 3.03 0 0 0 5.169-2.141v-.354c0-.015.013-.028.028-.028h2.46c.016 0 .028.013.028.028zm-1.258 5.832a4.872 4.872 0 0 0-4.869 4.869 4.872 4.872 0 0 0 4.869 4.869 4.872 4.872 0 0 0 4.869-4.869 4.872 4.872 0 0 0-4.869-4.869zm0 3a1.87 1.87 0 0 1 0 3.738 1.87 1.87 0 0 1 0-3.738z"></path></svg>