<svg xmlns="http://www.w3.org/2000/svg" enable-background="new 0 0 512 512" viewBox="0 0 512 512" id="testimonial"><path fill="#f65e5e" d="M1.962,125.496v197.178c0,15.045,12.197,27.242,27.242,27.242h30.402l78.65,102.131
				c6.347,8.241,19.53,3.753,19.53-6.649v-95.483H414.06c15.045,0,27.242-12.197,27.242-27.242V125.496
				c0-15.045-12.197-27.242-27.242-27.242H29.204C14.158,98.254,1.962,110.451,1.962,125.496z"></path><path fill="#626b72" d="M392.757 172.628H50.501c-1.644 0-2.977-1.333-2.977-2.977 0-1.644 1.333-2.977 2.977-2.977h342.256c1.644 0 2.977 1.333 2.977 2.977C395.734 171.295 394.4 172.628 392.757 172.628zM392.757 208.916H50.501c-1.644 0-2.977-1.333-2.977-2.977 0-1.644 1.333-2.977 2.977-2.977h342.256c1.644 0 2.977 1.333 2.977 2.977C395.734 207.583 394.4 208.916 392.757 208.916zM392.757 245.204H50.501c-1.644 0-2.977-1.333-2.977-2.977 0-1.644 1.333-2.977 2.977-2.977h342.256c1.644 0 2.977 1.333 2.977 2.977C395.734 243.871 394.4 245.204 392.757 245.204zM392.757 281.493H186.839c-1.644 0-2.977-1.333-2.977-2.977s1.333-2.977 2.977-2.977h205.918c1.644 0 2.977 1.333 2.977 2.977S394.4 281.493 392.757 281.493z"></path><path fill="#e6f5ff" d="M510.038,67.591v61.326c0,6.577-5.331,11.908-11.908,11.908H171.612
				c-6.577,0-11.908-5.331-11.908-11.908V67.591c0-6.577,5.331-11.908,11.908-11.908H498.13
				C504.707,55.683,510.038,61.014,510.038,67.591z"></path><path fill="#fdbb48" d="M224.173 106.763l2.718 8.378c1.178 3.632-2.981 6.649-6.068 4.401l-7.108-5.177c-1.38-1.005-3.251-1.007-4.634-.004l-7.199 5.222c-3.088 2.24-7.239-.777-6.062-4.405l2.73-8.415c.526-1.622-.05-3.397-1.428-4.401l-7.145-5.204c-3.084-2.246-1.495-7.126 2.32-7.126h8.825c1.703 0 3.214-1.095 3.745-2.713l2.77-8.451c1.188-3.623 6.316-3.616 7.493.011l2.734 8.428c.527 1.624 2.04 2.724 3.748 2.724h8.815c3.815 0 5.404 4.88 2.32 7.126l-7.145 5.204C224.223 103.366 223.647 105.142 224.173 106.763zM285.925 106.763l2.718 8.378c1.178 3.632-2.981 6.649-6.068 4.401l-7.108-5.177c-1.38-1.005-3.251-1.007-4.634-.004l-7.199 5.222c-3.088 2.24-7.239-.777-6.062-4.405l2.73-8.415c.526-1.622-.05-3.397-1.428-4.401l-7.145-5.204c-3.084-2.246-1.495-7.126 2.32-7.126h8.825c1.703 0 3.214-1.095 3.745-2.713l2.77-8.451c1.188-3.623 6.316-3.616 7.493.011l2.734 8.428c.527 1.624 2.04 2.724 3.748 2.724h8.815c3.815 0 5.404 4.88 2.32 7.126l-7.145 5.204C285.975 103.366 285.399 105.142 285.925 106.763zM347.677 106.763l2.718 8.378c1.178 3.632-2.981 6.649-6.068 4.401l-7.108-5.177c-1.38-1.005-3.251-1.007-4.634-.004l-7.199 5.222c-3.088 2.24-7.239-.777-6.062-4.405l2.73-8.415c.526-1.622-.05-3.397-1.428-4.401l-7.145-5.204c-3.084-2.246-1.495-7.126 2.32-7.126h8.825c1.703 0 3.214-1.095 3.744-2.713l2.77-8.451c1.188-3.623 6.316-3.616 7.493.011l2.734 8.428c.527 1.624 2.04 2.724 3.748 2.724h8.815c3.815 0 5.404 4.88 2.32 7.126l-7.145 5.204C347.727 103.366 347.151 105.142 347.677 106.763zM409.429 106.763l2.718 8.378c1.178 3.632-2.981 6.649-6.068 4.401l-7.108-5.177c-1.38-1.005-3.251-1.007-4.634-.004l-7.199 5.222c-3.088 2.24-7.239-.777-6.062-4.405l2.73-8.415c.526-1.622-.05-3.397-1.428-4.401l-7.145-5.204c-3.084-2.246-1.495-7.126 2.32-7.126h8.825c1.703 0 3.214-1.095 3.745-2.713l2.77-8.451c1.188-3.623 6.316-3.616 7.493.011l2.734 8.428c.527 1.624 2.04 2.724 3.748 2.724h8.815c3.815 0 5.404 4.88 2.32 7.126l-7.145 5.204C409.479 103.366 408.903 105.142 409.429 106.763zM471.181 106.763l2.718 8.378c1.178 3.632-2.981 6.649-6.068 4.401l-7.108-5.177c-1.38-1.005-3.251-1.007-4.634-.004l-7.199 5.222c-3.088 2.24-7.239-.777-6.062-4.405l2.73-8.415c.526-1.622-.05-3.397-1.428-4.401l-7.145-5.204c-3.084-2.246-1.495-7.126 2.32-7.126h8.825c1.703 0 3.214-1.095 3.745-2.713l2.77-8.451c1.188-3.623 6.316-3.616 7.493.011l2.734 8.428c.527 1.624 2.04 2.724 3.748 2.724h8.815c3.815 0 5.404 4.88 2.32 7.126l-7.145 5.204C471.231 103.366 470.654 105.142 471.181 106.763z"></path></svg>